<?xml version="1.0" encoding="utf-8"?>
<svg xmlns="http://www.w3.org/2000/svg" version="1.2" viewBox="0 0 746 234" role="img" aria-label="Momentum Billing">
<title>Momentum Billing</title>
<defs>
		<linearGradient id="g1" x2="1" gradientUnits="userSpaceOnUse" gradientTransform="matrix(137.643,0,0,202.48,43.268,17.899)">
			<stop offset="0" stop-color="#00b9f1"/>
			<stop offset=".191" stop-color="#00b9f1"/>
			<stop offset="1" stop-color="#0095d8"/>
		</linearGradient>
		<linearGradient id="g2" x2="1" gradientUnits="userSpaceOnUse" gradientTransform="matrix(137.643,0,0,202.48,43.268,17.899)">
			<stop offset="0" stop-color="#00b9f1"/>
			<stop offset=".191" stop-color="#00b9f1"/>
			<stop offset="1" stop-color="#0095d8"/>
		</linearGradient>
	</defs>
<style>
		.s0 { fill: #004a80 } 
		.s1 { fill: url(#g1) } 
		.s2 { fill: url(#g2) } 
	</style>
<g>
<path id="&lt;Compound Path&gt;" class="s0" d="m131 186.9h-7.1v-81.8h12l19.4 71.3h0.2l19.9-71.3h11.6v81.8h-7.1v-74.7h-0.2l-20.4 74.7h-7.5l-20.5-74.7h-0.3z"/>
<path id="&lt;Compound Path&gt;" fill-rule="evenodd" class="s0" d="m193.7 155.4c0-13.6 2.5-30.2 19.1-30.2 16.9 0 18.8 18.2 18.8 31.4 0 13.6-1.8 31.8-19.1 31.8-18.4 0-18.8-19.1-18.8-33zm31.5 1.3c0-9.4-0.2-26-13.2-26-11.3 0-12 16.5-12 24.8 0 8.9-0.7 27.4 12.4 27.4 12.7 0 12.8-17.2 12.8-26.2z"/>
<path id="&lt;Compound Path&gt;" class="s0" d="m243 186.9h-6.4v-60.2h6.4v5.3h0.2c2.6-4.3 7.5-6.8 12.8-6.8 4.9 0 8.9 0.4 12.6 6.7h0.3c3.2-4.7 8.6-6.7 14.2-6.7 10.8 0 13.8 6.8 13.8 16.3v45.4h-6.3v-46.1c0-5.1-2-10.2-8.3-10.2-7.3 0-12.4 4.7-12.4 12.3v44h-6.3v-43.5c0-6.8-0.8-12.7-9-12.7-5 0-11.6 4.9-11.6 10.3z"/>
<path id="&lt;Compound Path&gt;" fill-rule="evenodd" class="s0" d="m338 156.5h-28.3c0 7.7-1.1 26.4 11.3 26.4 9 0 10.1-8.4 10.6-15.6h6.1c0 11-4.4 21.1-16.8 21.1-16.8 0-17.6-19-17.6-31.4 0-12.1 0.8-31.8 17.4-31.8 14 0 17.3 13.7 17.3 25.2zm-6.4-5.6c0-7.6-0.7-20.2-11-20.2-9.9 0-10.9 13.1-10.9 20.2z"/>
<path id="&lt;Compound Path&gt;" class="s0" d="m350.3 186.9h-6.3v-60.2h6.3v5.9h0.2c3.1-4.5 7.8-7.4 13.7-7.4 7.8 0 14.1 5.2 14.1 13.9v47.8h-6.3v-43.7c0-6.9-0.6-12.5-8.9-12.5-6.3 0-12.8 5-12.8 11.8z"/>
<path id="&lt;Compound Path&gt;" class="s0" d="m402.3 187.4c-2.2 0.4-6 1-8.2 0.4-5.6-2-6.6-4.7-6.6-10.5v-45.1h-5.5v-5.5h5.5v-17.7h6.3v17.7h8.5v5.5h-8.5v44.4c0 2.1 0.3 5.2 3.2 5.7 1.7 0.7 3.6 0.3 5.3-0.1z"/>
<path id="&lt;Compound Path&gt;" class="s0" d="m436 126.7h6.3v60.2h-6.1v-5.6h-0.2c-3.9 5.2-8.9 7.1-15.2 7.1-11.1 0-13.4-7.8-13.4-17.2v-44.5h6.4v45.6c0 7.6 2.9 11.1 10.6 10.6 5-0.3 9.6-5.3 11.6-10.4z"/>
<path id="&lt;Compound Path&gt;" class="s0" d="m457 186.9h-6.4v-60.2h6.4v5.3h0.2c2.6-4.3 7.5-6.8 12.8-6.8 4.9 0 8.9 0.4 12.6 6.7h0.3c3.2-4.7 8.6-6.7 14.2-6.7 10.8 0 13.8 6.8 13.8 16.3v45.4h-6.3v-46.1c0-5.1-2-10.2-8.3-10.2-7.3 0-12.3 4.7-12.3 12.3v44h-6.4v-43.5c0-6.8-0.8-12.7-8.9-12.7-5.1 0-11.7 4.9-11.7 10.3z"/>
<path id="&lt;Compound Path&gt;" fill-rule="evenodd" class="s0" d="m539.4 186.9v-81.8h17.9c5.6 0 12.1 0.5 16.4 4.5 4.5 3.9 6.3 9.4 6.3 15.4 0 8.2-3.1 15.6-11.2 18.6v0.2c9.5 2.5 13.5 9.9 13.5 19.5 0 20.8-13.9 23.6-31.6 23.6zm14.4-46c11.6 0 19-2.4 19-15.6 0-12.9-8.9-13.9-19.7-13.9h-6.6v29.5zm-7.3 6.3v33.4h8.8c12.6 0 19.8-3.4 19.8-17.4 0-14.7-9.3-16-21.2-16z"/>
<path id="&lt;Compound Path&gt;" class="s0" d="m596.6 105.1v10.3h-7.3v-10.3zm-0.6 21.6v60.2h-6.3v-60.2z"/>
<path id="&lt;Compound Path&gt;" fill-rule="evenodd" class="s0" d="m613.7 105.1v81.8h-6.3v-81.8z"/>
<path id="&lt;Compound Path&gt;" fill-rule="evenodd" class="s0" d="m631.4 105.1v81.8h-6.3v-81.8z"/>
<path id="&lt;Compound Path&gt;" class="s0" d="m649.7 105.1v10.3h-7.3v-10.3zm-0.6 21.6v60.2h-6.3v-60.2z"/>
<path id="&lt;Compound Path&gt;" class="s0" d="m665 186.9h-6.4v-60.2h6.4v5.9h0.2c3.1-4.5 7.8-7.4 13.7-7.4 7.7 0 14.1 5.2 14.1 13.9v47.8h-6.4v-43.7c0-6.9-0.5-12.5-8.8-12.5-6.4 0-12.8 5-12.8 11.8z"/>
<path id="&lt;Compound Path&gt;" fill-rule="evenodd" class="s0" d="m728.9 126.7h6.4v58.9c0 13.1-4.5 21.9-18.7 21.9-8.7 0-16.3-4.1-16.8-13.6h6.5c0.3 5.4 5.4 7.8 10.4 8 13.1 0 11.9-10.9 12.2-19.3h-0.4c-3.3 4.3-7.9 5.8-12.7 5.8-16.4 0-17.3-18.4-17.3-31 0-11.4 0.5-32.2 16.9-32.2 6.1 0 10 2.1 13.3 6.9h0.2zm-24 30.8c0 8.5 0.2 25.4 12.3 25.4 11.6-0.1 11.7-16.6 11.7-24.5 0-9.7 1.2-27.6-12.6-27.6-11.2 0-11.4 19.5-11.4 26.7z"/>
<path id="&lt;Path&gt;" class="s0" d="m33.2 133.8c-9.1-58.7 33.4-114.1 95.3-124.8-6.6 0-13.2 0.4-19.9 1.5-62.9 9.7-106.5 65.3-97.4 123.9 8.6 55.5 61.2 93.9 120.1 89.7-49.4-5.7-90.5-41.5-98.1-90.3z"/>
<path id="&lt;Path&gt;" class="s1" d="m67.5 145.1c-9.2-58.9 34.4-114.6 97.3-124.4 5.4-0.8 10.8-1.3 16.1-1.4-12.3-1.9-25.3-1.9-38.4 0.1-63 9.8-106.9 63.4-98.1 119.8 6.1 39.6 36.8 70.1 76.4 81.2-27.9-15.7-48.3-42.6-53.3-75.3z"/>
<path id="&lt;Path&gt;" class="s0" d="m88.8 160.3c-7.2-46.3 26.1-89.9 74.3-97.4 13.1-2 25.9-1.2 37.8 2.1-15.4-7.6-33.4-10.7-51.8-7.8-47.1 7.3-79.5 50.8-72.3 97.1 4.9 31.2 26.5 55.8 54.5 66.2-22.1-12.3-38.4-33.8-42.5-60.2z"/>
</g>
</svg>
